<svg id="Botón-Perfil" xmlns="http://www.w3.org/2000/svg" width="42.484" height="42.484" viewBox="0 0 42.484 42.484">
  <g id="bxs-user-circle">
    <path id="Trazado_104" data-name="Trazado 104" d="M37.242,16A21.525,21.525,0,0,0,16,37.242,21.525,21.525,0,0,0,37.242,58.484,21.525,21.525,0,0,0,58.484,37.242,21.525,21.525,0,0,0,37.242,16Zm0,10.621a6.19,6.19,0,0,1,6.373,6.373,6.373,6.373,0,1,1-12.745,0A6.191,6.191,0,0,1,37.242,26.621ZM26.4,47.378a10.534,10.534,0,0,1,8.722-4.673h4.248a10.531,10.531,0,0,1,8.722,4.673,14.795,14.795,0,0,1-21.692,0Z" transform="translate(-16 -16)" fill="#fff"/>
  </g>
</svg>
