<svg xmlns="http://www.w3.org/2000/svg" width="32.658" height="32.658" viewBox="0 0 32.658 32.658">
  <g id="Botón-Preferencias" transform="translate(1 1)">
    <path id="Trazado_36" data-name="Trazado 36" d="M37.626,24a1.7,1.7,0,0,0-1.7,1.7v.969a1.879,1.879,0,0,1-3.135,1.3l-.685-.685a1.7,1.7,0,0,0-2.409,0l-2.409,2.409a1.7,1.7,0,0,0,0,2.409l.685.685a1.879,1.879,0,0,1-1.3,3.135H25.7a1.7,1.7,0,0,0-1.7,1.7v3.406a1.7,1.7,0,0,0,1.7,1.7h.969a1.879,1.879,0,0,1,1.3,3.134l-.685.685a1.7,1.7,0,0,0,0,2.409l2.409,2.409a1.7,1.7,0,0,0,2.409,0l.685-.685a1.879,1.879,0,0,1,3.135,1.3v.969a1.7,1.7,0,0,0,1.7,1.7h3.406a1.7,1.7,0,0,0,1.7-1.7v-.969a1.879,1.879,0,0,1,3.134-1.3l.685.685a1.7,1.7,0,0,0,2.409,0l2.409-2.409a1.7,1.7,0,0,0,0-2.409l-.685-.685a1.879,1.879,0,0,1,1.3-3.134h.969a1.7,1.7,0,0,0,1.7-1.7V37.626a1.7,1.7,0,0,0-1.7-1.7h-.969a1.879,1.879,0,0,1-1.3-3.135l.685-.685a1.7,1.7,0,0,0,0-2.409l-2.409-2.409a1.7,1.7,0,0,0-2.409,0l-.685.685a1.879,1.879,0,0,1-3.134-1.3V25.7a1.7,1.7,0,0,0-1.7-1.7Zm1.7,18.736a3.406,3.406,0,1,0-3.406-3.406A3.406,3.406,0,0,0,39.329,42.736Z" transform="translate(-24 -24)" fill="none" fill-rule="evenodd" opacity="0.2"/>
    <path id="Trazado_37" data-name="Trazado 37" d="M37.626,24h3.406a1.7,1.7,0,0,1,1.7,1.7v.969a1.879,1.879,0,0,0,3.134,1.3l.685-.685a1.7,1.7,0,0,1,2.409,0l2.409,2.409a1.7,1.7,0,0,1,0,2.409l-.685.685a1.879,1.879,0,0,0,1.3,3.135h.969a1.7,1.7,0,0,1,1.7,1.7v3.406a1.7,1.7,0,0,1-1.7,1.7h-.969a1.879,1.879,0,0,0-1.3,3.134l.685.685a1.7,1.7,0,0,1,0,2.409l-2.409,2.409a1.7,1.7,0,0,1-2.409,0l-.685-.685a1.879,1.879,0,0,0-3.134,1.3v.969a1.7,1.7,0,0,1-1.7,1.7H37.626a1.7,1.7,0,0,1-1.7-1.7v-.969a1.879,1.879,0,0,0-3.135-1.3l-.685.685a1.7,1.7,0,0,1-2.409,0l-2.409-2.409a1.7,1.7,0,0,1,0-2.409l.685-.685a1.879,1.879,0,0,0-1.3-3.134H25.7a1.7,1.7,0,0,1-1.7-1.7V37.626a1.7,1.7,0,0,1,1.7-1.7h.969a1.879,1.879,0,0,0,1.3-3.135l-.685-.685a1.7,1.7,0,0,1,0-2.409l2.409-2.409a1.7,1.7,0,0,1,2.409,0l.685.685a1.879,1.879,0,0,0,3.135-1.3V25.7A1.7,1.7,0,0,1,37.626,24Z" transform="translate(-24 -24)" fill="none" stroke="#f7fdfd" stroke-width="2"/>
    <path id="Trazado_38" data-name="Trazado 38" d="M87.557,83.778A3.778,3.778,0,1,1,83.778,80,3.778,3.778,0,0,1,87.557,83.778Z" transform="translate(-68.449 -68.449)" fill="none" stroke="#f7fdfd" stroke-width="2"/>
  </g>
</svg>
