<svg xmlns="http://www.w3.org/2000/svg" width="23.879" height="23.879" viewBox="0 0 23.879 23.879">
  <g id="Botón-Categorias" transform="translate(1 1)">
    <path id="Botón-Categorias-2" data-name="Botón-Categorias" d="M30.8,23H24.114A1.114,1.114,0,0,0,23,24.114V30.8a1.114,1.114,0,0,0,1.114,1.114H30.8A1.114,1.114,0,0,0,31.913,30.8V24.114A1.114,1.114,0,0,0,30.8,23Zm12.966,0H37.08a1.114,1.114,0,0,0-1.114,1.114V30.8a1.114,1.114,0,0,0,1.114,1.114h6.685A1.114,1.114,0,0,0,44.879,30.8V24.114A1.114,1.114,0,0,0,43.765,23Zm-2.026,7.6ZM30.8,35.966H24.114A1.114,1.114,0,0,0,23,37.08v6.685a1.114,1.114,0,0,0,1.114,1.114H30.8a1.114,1.114,0,0,0,1.114-1.114V37.08A1.114,1.114,0,0,0,30.8,35.966Zm9.623,0a4.456,4.456,0,1,0,4.456,4.456A4.461,4.461,0,0,0,40.422,35.966Z" transform="translate(-23 -23)" fill="none" stroke="#fff" stroke-width="2"/>
  </g>
</svg>
